# xmcd
#
# Track frame offsets:
#	150
#	25050
#	50475
#	76182
#	96600
#	122250
#	150662
#	173462
#	192430
#	209700
#
# Disc length: 3129 seconds
#
# Revision: 0
# Processed by: cddbd v1.5.2PL0 Copyright (c) Steve Scherf et al.
# Submitted via: EasyCDDAExtractor 2011.3.0.0
#
DISCID=7c0c370a
DTITLE=Renzo Arbore - Napoli, punto esclamativo
DYEAR=1990
DGENRE=Ambient
TTITLE0='O Sarracino
TTITLE1=Guaglione
TTITLE2=Silenzio cantatore
TTITLE3=Canzona appassiunata
TTITLE4=N'accordo in fa
TTITLE5=I' te vurria vasà
TTITLE6=Resta cu' me
TTITLE7=Guapparia
TTITLE8=Funiculì funiculà
TTITLE9='O sole mio
EXTD=
EXTT0=
EXTT1=
EXTT2=
EXTT3=
EXTT4=
EXTT5=
EXTT6=
EXTT7=
EXTT8=
EXTT9=
PLAYORDER=
